<svg xmlns="http://www.w3.org/2000/svg" width="500" height="500" viewBox="0 0 500 500" version="1.1"><path d="M 242.740 174.750 C 241.877 175.713, 238.695 182.800, 235.670 190.500 C 232.645 198.200, 226.757 212.788, 222.585 222.917 C 218.414 233.047, 215.157 241.490, 215.347 241.680 C 215.665 241.998, 234.734 196.265, 240.022 182.500 C 243.639 173.086, 245.682 171.688, 248.428 176.750 C 249.249 178.262, 249.938 179.038, 249.960 178.473 C 250.025 176.803, 246.994 173, 245.598 173 C 244.890 173, 243.604 173.787, 242.740 174.750 M 252.071 185.230 C 251.956 186.414, 255.214 194.120, 255.646 193.687 C 255.864 193.470, 255.164 191.313, 254.092 188.896 C 253.019 186.478, 252.109 184.828, 252.071 185.230 M 241.161 207.547 C 239.493 211.207, 239.805 212.008, 241.604 208.688 C 242.443 207.142, 243.648 206.049, 244.282 206.261 C 244.916 206.472, 246.508 209.312, 247.819 212.572 C 250.133 218.328, 250.355 222.875, 248.595 228.500 C 248.251 229.600, 248.631 229.150, 249.440 227.500 C 251.599 223.093, 251.319 218.819, 248.394 211.511 C 245.539 204.380, 243.190 203.093, 241.161 207.547 M 260.071 205.500 C 260.071 206.050, 260.714 207.625, 261.500 209 C 262.286 210.375, 262.929 211.050, 262.929 210.500 C 262.929 209.950, 262.286 208.375, 261.500 207 C 260.714 205.625, 260.071 204.950, 260.071 205.500 M 263.490 213.750 C 263.877 214.713, 265.117 217.872, 266.244 220.770 C 267.371 223.669, 268.472 225.861, 268.691 225.642 C 269.185 225.148, 263.977 212, 263.287 212 C 263.011 212, 263.103 212.787, 263.490 213.750 M 269.573 229 C 269.941 230.375, 270.659 232.175, 271.169 233 C 271.813 234.042, 271.892 233.737, 271.427 232 C 271.059 230.625, 270.341 228.825, 269.831 228 C 269.187 226.958, 269.108 227.263, 269.573 229 M 243.111 242.111 C 242.495 243.878, 242.166 245.499, 242.380 245.713 C 242.594 245.927, 243.273 244.656, 243.889 242.889 C 244.505 241.122, 244.834 239.501, 244.620 239.287 C 244.406 239.073, 243.727 240.344, 243.111 242.111 M 223.692 250.192 C 221.682 255.241, 220.199 259.532, 220.396 259.730 C 220.593 259.927, 222.406 255.964, 224.423 250.923 C 226.441 245.882, 227.924 241.591, 227.719 241.386 C 227.514 241.181, 225.702 245.144, 223.692 250.192 M 211.667 249.167 C 210.202 252.561, 209.164 255.498, 209.360 255.694 C 209.556 255.890, 210.919 253.278, 212.389 249.889 C 213.859 246.500, 214.896 243.563, 214.695 243.362 C 214.494 243.161, 213.131 245.773, 211.667 249.167 M 255.438 247.213 L 253.500 249.500 255.731 247.612 C 258.601 245.184, 260.099 246.326, 264.031 253.938 C 265.611 256.997, 266.920 259.050, 266.940 258.500 C 267.011 256.541, 260.277 245.495, 258.840 245.213 C 258.035 245.055, 256.505 245.955, 255.438 247.213 M 236.256 261.299 C 224.697 293.018, 217.981 312.315, 218.367 312.701 C 218.592 312.925, 219.450 311.172, 220.275 308.804 C 221.101 306.437, 226.354 291.740, 231.949 276.145 C 237.545 260.549, 241.967 247.634, 241.777 247.443 C 241.586 247.253, 239.102 253.488, 236.256 261.299 M 250.624 254.539 C 250.281 255.432, 250.056 257.589, 250.125 259.332 C 250.229 261.968, 250.376 261.744, 250.998 258 C 251.793 253.216, 251.647 251.871, 250.624 254.539 M 205.738 263.207 C 205.458 263.918, 201.098 274.784, 196.050 287.353 C 191.002 299.922, 187.054 310.388, 187.277 310.611 C 187.500 310.834, 192.014 300.123, 197.309 286.809 C 202.603 273.495, 206.780 262.447, 206.591 262.258 C 206.402 262.069, 206.018 262.496, 205.738 263.207 M 215.625 269.979 C 213.369 275.619, 213.716 276.458, 216.092 271.104 C 217.164 268.687, 217.864 266.530, 217.646 266.313 C 217.428 266.095, 216.519 267.745, 215.625 269.979 M 244.681 270 C 243.888 271.925, 242.958 274.625, 242.615 276 C 242.076 278.156, 242.126 278.225, 242.979 276.500 C 243.523 275.400, 244.472 273.150, 245.087 271.500 L 246.206 268.500 247.211 271 C 247.764 272.375, 249.708 277.775, 251.532 283 C 253.356 288.225, 254.882 291.981, 254.924 291.347 C 255.008 290.065, 248.292 270.363, 246.965 268 C 246.313 266.838, 245.798 267.289, 244.681 270 M 253.634 272 C 253.971 273.375, 254.862 275.850, 255.613 277.500 C 256.710 279.909, 256.859 280.008, 256.366 278 C 256.029 276.625, 255.138 274.150, 254.387 272.500 C 253.290 270.091, 253.141 269.992, 253.634 272 M 271 272.248 C 271 273.603, 280.301 299.033, 280.663 298.670 C 280.883 298.451, 279.034 292.521, 276.556 285.494 C 272.535 274.094, 271 270.433, 271 272.248 M 212.162 278.543 C 210.487 282.220, 210.807 283.005, 212.618 279.662 C 213.464 278.100, 213.969 276.636, 213.741 276.407 C 213.512 276.179, 212.802 277.140, 212.162 278.543 M 257.045 281.500 C 257.027 282.050, 261.270 295.325, 266.475 311 C 271.680 326.675, 275.952 338.896, 275.969 338.158 C 276.004 336.628, 260.413 288.154, 258.399 283.531 C 257.672 281.864, 257.063 280.950, 257.045 281.500 M 291.573 284 C 291.941 285.375, 292.659 287.175, 293.169 288 C 293.813 289.042, 293.892 288.737, 293.427 287 C 293.059 285.625, 292.341 283.825, 291.831 283 C 291.187 281.958, 291.108 282.263, 291.573 284 M 294 290.332 C 294 290.698, 297.411 299.661, 301.580 310.249 C 305.750 320.837, 309.627 330.760, 310.196 332.301 C 310.765 333.842, 311.426 334.907, 311.665 334.669 C 312.053 334.281, 295.314 291.095, 294.383 290.083 C 294.173 289.854, 294 289.966, 294 290.332 M 255.076 293.498 C 254.965 294.959, 262.139 316.195, 262.591 315.742 C 262.802 315.531, 261.215 310.215, 259.064 303.929 C 256.913 297.643, 255.118 292.949, 255.076 293.498 M 203.162 300.543 C 201.487 304.220, 201.807 305.005, 203.618 301.662 C 204.464 300.100, 204.969 298.636, 204.741 298.407 C 204.512 298.179, 203.802 299.140, 203.162 300.543 M 233.111 303.111 C 232.495 304.878, 232.166 306.499, 232.380 306.713 C 232.594 306.927, 233.273 305.656, 233.889 303.889 C 234.505 302.122, 234.834 300.501, 234.620 300.287 C 234.406 300.073, 233.727 301.344, 233.111 303.111 M 283.573 307 C 283.941 308.375, 284.659 310.175, 285.169 311 C 285.813 312.042, 285.892 311.737, 285.427 310 C 285.059 308.625, 284.341 306.825, 283.831 306 C 283.187 304.958, 283.108 305.263, 283.573 307 M 229.615 312.615 C 228.730 315.213, 228.179 317.512, 228.390 317.724 C 228.602 317.935, 229.499 315.983, 230.385 313.385 C 231.270 310.787, 231.821 308.488, 231.610 308.276 C 231.398 308.065, 230.501 310.017, 229.615 312.615 M 214.104 323.189 C 212.397 328.313, 211.034 332.954, 211.076 333.502 C 211.118 334.051, 212.687 330.032, 214.565 324.572 C 216.442 319.112, 217.804 314.471, 217.592 314.259 C 217.380 314.047, 215.810 318.066, 214.104 323.189 M 263 317.920 C 263 320.271, 269.355 336.668, 270.783 338 C 272.212 339.333, 272.273 339.333, 271.329 338 C 270.745 337.175, 268.820 332.113, 267.051 326.750 C 264.118 317.857, 263 315.421, 263 317.920 M 288.573 320 C 288.941 321.375, 289.659 323.175, 290.169 324 C 290.813 325.042, 290.892 324.737, 290.427 323 C 290.059 321.625, 289.341 319.825, 288.831 319 C 288.187 317.958, 288.108 318.263, 288.573 320 M 179.045 329.545 C 177.294 333.752, 176.030 337.364, 176.237 337.571 C 176.444 337.778, 178.035 334.494, 179.773 330.273 C 181.510 326.052, 182.774 322.440, 182.581 322.247 C 182.388 322.054, 180.797 325.338, 179.045 329.545 M 223.538 329.887 L 220.869 337.900 216.185 338.278 L 211.500 338.656 216.500 338.578 L 221.500 338.500 224.265 330.598 C 225.785 326.252, 226.844 322.511, 226.618 322.285 C 226.392 322.058, 225.006 325.479, 223.538 329.887 M 191.162 328.543 C 189.487 332.220, 189.807 333.005, 191.618 329.662 C 192.464 328.100, 192.969 326.636, 192.741 326.407 C 192.512 326.179, 191.802 327.140, 191.162 328.543 M 293.004 331.583 C 293.008 332.706, 296.783 339, 297.452 339 C 297.716 339, 296.966 337.313, 295.786 335.250 C 293.141 330.630, 292.999 330.444, 293.004 331.583 M 180.762 339.707 C 182.006 339.946, 183.806 339.937, 184.762 339.687 C 185.718 339.437, 184.700 339.241, 182.500 339.252 C 180.300 339.263, 179.518 339.468, 180.762 339.707 M 306.250 339.689 C 307.212 339.941, 308.788 339.941, 309.750 339.689 C 310.712 339.438, 309.925 339.232, 308 339.232 C 306.075 339.232, 305.288 339.438, 306.250 339.689" stroke="none" fill="#bbbbbc" fill-rule="evenodd"/><path d="M 243.294 175.207 C 242.732 175.918, 240.456 181.225, 238.235 187 C 236.015 192.775, 228.921 210.100, 222.471 225.500 C 216.020 240.900, 204.776 268.350, 197.484 286.500 C 190.191 304.650, 182.396 323.887, 180.161 329.250 L 176.097 339 181.436 339 L 186.775 339 196.299 316.750 C 201.537 304.512, 210.634 282.575, 216.514 268 C 239.493 211.041, 242.129 205, 244.009 205 C 246.043 205, 250.995 216.151, 251.008 220.761 C 251.012 222.267, 249.016 228.900, 246.571 235.500 C 239.532 254.503, 219.240 311.251, 214.477 325.250 L 210.140 338 215.440 338 L 220.740 338 226 323.250 C 228.894 315.137, 234.377 299.500, 238.185 288.500 C 241.993 277.500, 245.486 268.121, 245.947 267.657 C 246.860 266.740, 247.766 269.221, 261.371 309.902 C 269.961 335.586, 272.420 340.913, 274.656 338.677 C 275.070 338.264, 273.574 332.430, 271.331 325.713 C 255.958 279.657, 250 260.803, 250 258.206 C 250 254.296, 255.844 245.500, 258.442 245.500 C 261.264 245.500, 265.867 255.094, 273.556 277 C 282.554 302.635, 293.934 332.363, 296.134 335.980 C 297.915 338.908, 298.198 339, 305.471 339 L 312.971 339 310.858 333.750 C 309.695 330.863, 305.597 320.400, 301.751 310.500 C 294.771 292.535, 259.852 204.881, 251.761 185.013 C 247.564 174.707, 245.541 172.364, 243.294 175.207" stroke="none" fill="#fafafa" fill-rule="evenodd"/></svg>