<?xml version="1.0" standalone="no"?>
<!DOCTYPE svg PUBLIC "-//W3C//DTD SVG 20010904//EN"
 "http://www.w3.org/TR/2001/REC-SVG-20010904/DTD/svg10.dtd">
<svg version="1.0" xmlns="http://www.w3.org/2000/svg"
 width="512.000000pt" height="512.000000pt" viewBox="0 0 512.000000 512.000000"
 preserveAspectRatio="xMidYMid meet">
<metadata>
Created by potrace 1.14, written by Peter Selinger 2001-2017
</metadata>
<g transform="translate(0.000000,512.000000) scale(0.100000,-0.100000)"
fill="#000000" stroke="none">
<path d="M0 2560 l0 -2560 2560 0 2560 0 0 2560 0 2560 -2560 0 -2560 0 0
-2560z m2532 773 c9 -10 46 -92 83 -183 158 -392 329 -822 414 -1040 50 -129
110 -284 135 -345 24 -60 41 -113 38 -116 -4 -4 -42 -5 -85 -2 -73 5 -79 7
-93 35 -28 54 -255 660 -303 810 -7 20 -26 55 -42 78 l-31 42 -25 -23 c-37
-34 -65 -102 -57 -136 6 -26 244 -748 259 -785 6 -15 2 -18 -23 -18 -19 0 -32
6 -37 18 -11 27 -127 371 -185 550 -29 89 -56 159 -59 156 -3 -3 -38 -99 -77
-212 -39 -114 -96 -276 -125 -359 l-54 -153 -57 0 c-41 0 -58 4 -58 13 0 18
45 148 220 632 226 624 206 560 190 603 -29 81 -50 122 -62 122 -8 0 -44 -75
-87 -182 -192 -474 -439 -1070 -481 -1160 -12 -26 -18 -28 -73 -28 -43 0 -58
3 -54 13 3 6 74 181 157 387 84 206 220 537 302 735 82 198 165 400 184 449
46 120 57 132 86 99z"/>
</g>
</svg>
